HIERARCHY
ROOT hip
{
	OFFSET 0.000000 0.000000 0.000000 
	CHANNELS 6 Xposition Yposition Zposition Xrotation Zrotation Yrotation
	JOINT abdomen
	{
		OFFSET 0.000000 3.402643 0.000000 
		CHANNELS 3 Xrotation Zrotation Yrotation
		JOINT chest
		{
			OFFSET 0.000000 8.438565 -0.680529 
			CHANNELS 3 Xrotation Zrotation Yrotation
			JOINT neck
			{
				OFFSET 0.000000 10.207942 -0.272212 
				CHANNELS 3 Xrotation Zrotation Yrotation
				JOINT head
				{
					OFFSET 0.000000 3.130431 0.000000 
					CHANNELS 3 Xrotation Zrotation Yrotation
					End Site
					{
						OFFSET 0.000000 3.130435 0.000000 
					}
				}
			}
			JOINT lCollar
			{
				OFFSET 3.470700 6.669187 -0.816635 
				CHANNELS 3 Yrotation Zrotation Xrotation
				JOINT lShldr
				{
					OFFSET 3.198488 0.000000 0.000000 
					CHANNELS 3 Zrotation Yrotation Xrotation
					JOINT lForeArm
					{
						OFFSET 10.139888 0.000000 0.000000 
						CHANNELS 3 Yrotation Zrotation Xrotation
						JOINT lHand
						{
							OFFSET 8.370511 0.000000 0.000000 
							CHANNELS 3 Zrotation Yrotation Xrotation
							End Site
							{
								OFFSET 4.083176 0.000000 0.000000 
							}
						}
					}
				}
			}
			JOINT rCollar
			{
				OFFSET -3.470700 6.669187 -0.816635 
				CHANNELS 3 Yrotation Zrotation Xrotation
				JOINT rShldr
				{
					OFFSET -3.198488 0.000000 0.000000 
					CHANNELS 3 Zrotation Yrotation Xrotation
					JOINT rForeArm
					{
						OFFSET -10.139888 0.000000 0.000000 
						CHANNELS 3 Yrotation Zrotation Xrotation
						JOINT rHand
						{
							OFFSET -8.370511 0.000000 0.000000 
							CHANNELS 3 Zrotation Yrotation Xrotation
							End Site
							{
								OFFSET -4.083176 0.000000 0.000000 
							}
						}
					}
				}
			}
		}
	}
	JOINT lThigh
	{
		OFFSET 5.308129 -1.633274 1.361059 
		CHANNELS 3 Xrotation Zrotation Yrotation
		JOINT lShin
		{
			OFFSET -2.041588 -20.007561 0.000000 
			CHANNELS 3 Xrotation Zrotation Yrotation
			JOINT lFoot
			{
				OFFSET 0.000000 -19.190928 -1.224953 
				CHANNELS 3 Xrotation Yrotation Zrotation
				End Site
				{
					OFFSET 0.000000 -2.449906 4.627600 
				}
			}
		}
	}
	JOINT rThigh
	{
		OFFSET -5.308129 -1.633274 1.361059 
		CHANNELS 3 Xrotation Zrotation Yrotation
		JOINT rShin
		{
			OFFSET 2.041588 -20.007561 0.000000 
			CHANNELS 3 Xrotation Zrotation Yrotation
			JOINT rFoot
			{
				OFFSET 0.000000 -19.190928 -1.224953 
				CHANNELS 3 Xrotation Yrotation Zrotation
				End Site
				{
					OFFSET 0.000000 -2.449906 4.627600 
				}
			}
		}
	}
}
MOTION
Frames: 15
Frame Time: 0.033333
-1.593542 50.600502 0.527194 0.029297 0.224609 -0.214691 0.000000 0.000000 0.000000 -10.390806 0.336192 -1.848755 33.460964 4.781747 -1.255296 -23.815163 -4.537841 2.592724 -3.519355 9.157742 6.311733 -37.878834 20.052561 -46.234665 -18.862696 7.689853 14.883995 3.130015 0.415540 -8.086475 3.090466 -14.082293 8.028685 39.089821 -7.990562 -41.629742 10.940077 -9.957662 59.744503 -16.463369 -11.556117 -8.837881 -2.284923 6.765373 10.425957 13.478691 -1.458200 -10.443985 -5.257485 0.465350 -3.689051 1.715999 -6.145644 -13.981544 6.521581 1.042315 -1.292502 -4.412567 0.064726 -1.679053 
-1.626850 50.593872 0.469234 0.039063 0.224609 -0.165824 0.000000 0.000000 0.000000 -10.420093 0.326556 -1.895989 33.681332 4.847239 -1.242867 -23.941525 -4.514995 2.602055 -3.519355 9.157742 6.311733 -37.822697 20.030260 -46.189037 -18.788254 7.628839 14.840033 3.329751 0.610741 -8.109872 3.090466 -14.082293 8.028685 39.080952 -7.957706 -41.572395 10.929115 -9.935914 59.819061 -16.449913 -11.731668 -8.821681 -2.459036 6.837071 10.479357 13.677352 -1.514157 -10.527466 -6.383676 0.338061 -2.207901 1.659311 -6.121733 -13.989779 6.537439 1.080461 -1.358498 -4.549280 0.095867 -1.761942 
-1.647101 50.590565 0.459393 -0.107423 0.253906 -0.137195 0.000000 0.000000 0.000000 -10.312690 0.345883 -1.879342 33.647926 4.774515 -1.303915 -23.920305 -4.483038 2.511222 -3.519355 9.157742 6.311733 -37.799839 20.057938 -45.938992 -18.710659 7.548309 14.359801 3.148240 0.782825 -8.094804 3.090466 -14.082293 8.028685 39.066257 -8.037907 -41.608292 10.899322 -9.939893 59.755569 -16.557064 -11.824160 -8.816448 -2.294770 6.805243 10.408330 13.571980 -1.457627 -10.594632 -5.482116 0.401809 -3.207961 1.786076 -6.140630 -14.068973 6.525912 1.128919 -1.269253 -4.575642 0.076133 -1.781068 
-1.693281 50.599552 0.433038 -0.146486 0.302733 -0.215618 0.000000 0.000000 0.000000 -10.361413 0.230553 -1.799966 33.878681 5.531727 -1.358538 -24.129992 -5.098712 2.848937 -3.519355 9.157742 6.311733 -37.718616 20.093475 -46.095566 -18.718273 7.571923 14.582544 3.312694 0.805552 -8.109797 3.090466 -14.082293 8.028685 39.124352 -8.082770 -41.365044 10.834565 -9.855730 59.745548 -16.682531 -11.928823 -8.809994 -2.176893 6.741999 10.345326 13.350824 -1.370501 -10.370849 -5.061975 0.478454 -3.915464 1.783323 -6.114495 -14.027530 6.535548 1.099602 -1.396838 -4.599942 0.099305 -1.739506 
-1.738038 50.618954 0.385913 -0.029298 0.400391 -0.185752 0.000000 0.000000 0.000000 -10.625010 0.076786 -1.821045 33.950817 5.185326 -1.282889 -24.073946 -4.796829 2.738138 -3.519355 9.157742 6.311733 -37.620987 20.182718 -45.929359 -18.682667 7.549052 14.416575 2.825906 0.974851 -8.073735 3.090466 -14.082293 8.028685 39.166138 -8.122369 -41.201683 10.813706 -9.834929 59.808769 -16.810083 -12.092818 -8.795177 -2.519438 6.727036 10.258650 13.592113 -1.312188 -10.327962 -5.129320 0.498685 -4.087939 1.647566 -6.185405 -14.084090 6.513968 1.147976 -1.308077 -4.712828 0.081025 -1.800932 
-1.791408 50.627937 0.346640 0.039063 0.332031 -0.126670 0.000000 0.000000 0.000000 -10.771501 0.095936 -1.854189 34.171543 5.376040 -1.294450 -24.524078 -4.772621 2.746313 -3.519355 9.157742 6.311733 -37.593185 20.180136 -45.878529 -18.647421 7.491049 13.622770 2.713533 0.860709 -8.057404 3.090466 -14.082293 8.028685 39.155510 -8.261881 -41.083878 10.769921 -9.791515 59.463367 -17.150885 -12.077119 -8.791880 -2.361425 6.846444 10.361287 13.060693 -1.409215 -10.750031 -4.826136 0.471325 -3.980080 1.520154 -6.066461 -13.996508 6.519325 1.139327 -1.415645 -4.368313 0.060606 -1.574594 
-1.855144 50.612331 0.293364 0.087892 0.302734 -0.077609 0.000000 0.000000 0.000000 -10.898438 -0.019179 -1.861542 34.048138 5.436120 -1.308708 -24.502865 -4.921460 2.820821 -3.519355 9.157742 6.311733 -37.661625 19.991224 -46.895691 -18.917589 7.662712 12.254518 1.919240 0.829478 -7.979627 3.090466 -14.082293 8.028685 39.338821 -8.265623 -41.435448 10.866699 -9.891678 59.783390 -16.934847 -12.128414 -8.787254 -2.714165 7.008866 10.537968 13.506605 -1.426717 -9.964970 -5.190603 0.497710 -4.067723 1.415300 -5.927832 -13.857921 6.516727 1.098844 -1.700377 -4.784897 0.093970 -1.763955 
-1.903451 50.616585 0.256174 0.126955 0.332030 -0.077333 0.000000 0.000000 0.000000 -10.966805 -0.067111 -1.861996 34.073048 4.968916 -1.244134 -24.615313 -4.456366 2.599842 -3.519355 9.157742 6.311733 -37.781979 19.953709 -47.602440 -19.063656 7.755419 10.891942 2.289991 1.640054 -8.048050 3.090466 -14.082293 8.028685 39.331097 -8.331417 -41.391479 10.814729 -9.879087 59.411396 -16.802109 -12.003170 -8.804129 -2.831385 7.037107 10.480740 13.523257 -1.389303 -9.845220 -4.608754 0.547243 -4.847271 1.335159 -5.871201 -13.775526 6.504166 1.050324 -1.673555 -4.717036 0.084093 -1.725365 
-1.957674 50.684250 0.228875 -0.019532 0.410156 -0.068499 0.000000 0.000000 0.000000 -10.986529 -0.345119 -1.778705 34.121777 5.099442 -1.270859 -24.632389 -4.406365 2.579109 -3.519355 9.157742 6.311733 -37.744957 19.708208 -47.588196 -18.982250 7.522307 8.263751 0.670330 0.734686 -7.841959 3.090466 -14.082293 8.028685 39.710712 -8.364954 -41.386219 10.754558 -9.876573 59.303104 -17.057787 -11.878174 -8.814743 -3.142068 7.032722 10.245764 14.244445 -1.152868 -10.479499 -5.217652 0.545159 -4.398161 1.452942 -5.933300 -13.877713 6.478796 1.109920 -1.526093 -4.303694 0.065073 -1.498235 
-1.999310 50.653019 0.217850 -0.136723 0.439452 -0.128002 0.000000 0.000000 0.000000 -10.840066 -0.364472 -1.766148 34.005871 5.271749 -1.259912 -24.505539 -4.609558 2.706728 -3.519355 9.157742 6.311733 -37.793289 19.696720 -47.299126 -18.870943 7.469377 8.973958 2.132184 -0.136757 -7.957627 3.090466 -14.082293 8.028685 39.657352 -8.299998 -41.292027 10.712719 -9.857866 59.077530 -17.356630 -12.103248 -8.788680 -2.605579 6.993492 10.310520 13.462705 -1.272376 -10.775977 -4.856516 0.503825 -4.242435 1.581516 -5.936065 -13.945273 6.467999 1.158270 -1.466139 -4.574254 0.074529 -1.612067 
-2.050410 50.643555 0.175977 -0.126957 0.468749 -0.215882 0.000000 0.000000 0.000000 -10.859792 -0.498719 -1.681674 33.926609 5.411386 -1.205024 -24.469866 -4.677069 2.814433 -3.519355 9.157742 6.311733 -37.632404 19.659283 -46.914547 -18.795963 7.412126 9.245260 1.294495 -0.420763 -7.851304 3.090466 -14.082293 8.028685 39.788692 -8.255274 -41.012722 10.697523 -9.770351 59.087391 -17.123058 -12.211451 -8.786820 -2.343732 7.020856 10.369940 12.872637 -1.360512 -10.619492 -4.167445 0.516125 -4.675312 1.484155 -5.898350 -13.913685 6.468390 1.148604 -1.427461 -4.392299 0.079723 -1.524219 
-2.105153 50.637882 0.144702 -0.156255 0.468748 -0.186825 0.000000 0.000000 0.000000 -10.811098 -0.575538 -1.706508 34.017593 5.561210 -1.273309 -24.656208 -4.675373 2.766526 -3.519355 9.157742 6.311733 -37.621090 19.508877 -46.830994 -18.827780 7.488445 10.179371 1.889412 -0.801461 -7.898193 3.090466 -14.082293 8.028685 39.897194 -8.206468 -40.833012 10.672915 -9.695321 59.036377 -16.899525 -11.720150 -8.821767 -2.274646 7.103455 10.442339 12.723690 -1.468156 -11.001696 -5.290577 0.401024 -2.973064 1.491377 -5.833714 -13.849277 6.458854 1.138885 -1.389261 -4.323264 0.060245 -1.489770 
-2.163826 50.623684 0.114988 -0.156256 0.488279 -0.186878 0.000000 0.000000 0.000000 -10.733233 -0.700420 -1.703184 34.059898 5.608278 -1.226631 -24.879923 -4.638911 2.807768 -3.519355 9.157742 6.311733 -37.477482 19.424263 -46.716618 -18.762590 7.460379 10.381603 2.216470 -0.815210 -7.929457 3.090466 -14.082293 8.028685 40.085548 -8.101746 -40.842812 10.722954 -9.702120 59.046917 -16.757807 -11.662684 -8.830895 -2.275090 7.155249 10.444976 12.661673 -1.447909 -11.152937 -4.399504 0.469255 -4.051228 1.482105 -5.784921 -13.855118 6.449777 1.158785 -1.515838 -4.585650 0.070742 -1.571316 
-2.231910 50.661064 0.084659 -0.263682 0.498042 -0.148776 0.000000 0.000000 0.000000 -10.577308 -0.835175 -1.709301 33.765285 5.615610 -1.260770 -24.772762 -4.832739 2.883131 -3.519355 9.157742 6.311733 -37.488888 19.260300 -46.765568 -18.822952 7.551749 10.901023 1.852610 -0.678401 -7.898375 3.090466 -14.082293 8.028685 40.304268 -8.067365 -40.560059 10.657081 -9.618432 58.763306 -16.745441 -11.680802 -8.831502 -2.420669 7.239844 10.508298 12.969600 -1.378121 -10.918094 -4.076638 0.532836 -4.783703 1.542055 -5.731657 -13.830107 6.448742 1.168083 -1.535026 -4.336780 0.067066 -1.423353 
-2.274447 50.640247 0.060813 -0.410174 0.537096 -0.160095 0.000000 0.000000 0.000000 -10.382305 -0.950971 -1.671504 33.532600 5.665694 -1.265700 -24.668774 -4.904002 2.927369 -3.519355 9.157742 6.311733 -37.415203 19.110666 -46.716484 -18.859732 7.594196 11.053330 1.654143 -0.597523 -7.883079 3.090466 -14.082293 8.028685 40.318481 -8.012839 -40.155178 10.558495 -9.489722 58.422050 -16.914663 -11.456189 -8.844470 -2.147452 7.200209 10.466365 12.697447 -1.370233 -10.855461 -3.980540 0.506487 -4.687840 1.666994 -5.726737 -13.847836 6.460816 1.178374 -1.368153 -4.565342 0.082163 -1.608776 
